<?xml version="1.0" encoding="UTF-8" standalone="no"?>
<!-- Generator: Adobe Illustrator 13.0.0, SVG Export Plug-In . SVG Version: 6.00 Build 14948)  -->

<svg
   xmlns:dc="http://purl.org/dc/elements/1.1/"
   xmlns:cc="http://creativecommons.org/ns#"
   xmlns:rdf="http://www.w3.org/1999/02/22-rdf-syntax-ns#"
   xmlns:svg="http://www.w3.org/2000/svg"
   xmlns="http://www.w3.org/2000/svg"
   xmlns:sodipodi="http://sodipodi.sourceforge.net/DTD/sodipodi-0.dtd"
   xmlns:inkscape="http://www.inkscape.org/namespaces/inkscape"
   version="1.1"
   id="Layer_1"
   x="0px"
   y="0px"
   width="100"
   height="100"
   viewBox="0 0 100 100"
   enable-background="new 0 0 220 162"
   xml:space="preserve"
   sodipodi:docname="dreamcast_logo.svg"
   inkscape:version="0.92.4 5da689c313, 2019-01-14"><metadata
   id="metadata29"><rdf:RDF><cc:Work
       rdf:about=""><dc:format>image/svg+xml</dc:format><dc:type
         rdf:resource="http://purl.org/dc/dcmitype/StillImage" /><dc:title></dc:title></cc:Work></rdf:RDF></metadata><defs
   id="defs27" /><sodipodi:namedview
   pagecolor="#ffffff"
   bordercolor="#666666"
   borderopacity="1"
   objecttolerance="10"
   gridtolerance="10"
   guidetolerance="10"
   inkscape:pageopacity="0"
   inkscape:pageshadow="2"
   inkscape:window-width="1920"
   inkscape:window-height="1050"
   id="namedview25"
   showgrid="false"
   inkscape:zoom="1.1590909"
   inkscape:cx="61.748"
   inkscape:cy="21.389285"
   inkscape:window-x="1920"
   inkscape:window-y="0"
   inkscape:window-maximized="1"
   inkscape:current-layer="Layer_1"
   inkscape:snap-to-guides="false" />










<path
   d="m 59.518085,11.216155 c 3.419534,0.513441 6.911796,1.707584 8.73284,2.264664 3.668986,1.121417 9.625178,4.607139 11.728386,6.279088 0.994885,0.790523 3.087182,2.861012 3.897338,3.903162 0.789074,1.015246 2.296671,3.214454 3.258821,4.569321 1.53086,2.236302 3.333721,5.567115 4.86313,8.632482 1.708317,3.424632 1.825402,4.416603 2.341757,7.279791 l 1.129422,5.047127 c 0.106182,0.872703 0.194176,4.074064 -1.685045,4.522783 -1.878495,0.448718 -3.615175,-0.418174 -4.434053,-1.685046 C 88.217628,50.276121 88.373987,47.787468 87.092565,44.938826 86.09332,42.636342 85.65624,39.290251 84.060654,36.88378 l -1.251602,-2.116301 c -2.214486,-3.409356 -4.522782,-6.115458 -5.899474,-7.8805 -1.212327,-1.482864 -3.476259,-3.49881 -5.622383,-4.932952 -1.984667,-1.203597 -5.193306,-2.575924 -7.507416,-3.282815 -0.737437,-0.239991 -3.893707,-1.167963 -5.855108,-1.429045 -2.661739,-0.298907 -4.412963,-0.719986 -6.94234,-0.898161 -3.122826,-0.220357 -4.620958,-0.498165 -8.671749,-0.02473 -1.534507,0.415991 -3.965709,0.581081 -6.154008,1.418141 -1.767225,0.720712 -4.225333,1.885035 -6.633263,3.299543 -2.5912,1.421049 -6.524907,4.327149 -9.13356,6.808531 -2.629012,2.809374 -3.943886,4.316969 -5.756925,7.878317 -0.802886,1.762136 -2.355568,4.487872 -2.981728,6.412182 -0.427627,1.953399 -1.243606,5.596929 -1.106156,7.366337 0.06183,3.17009 -0.215259,3.823162 0.02256,6.414364 0.0087,2.333019 0.774529,3.950426 1.093061,5.858741 0.272718,1.318498 1.537415,5.880556 2.319933,6.939433 3.556992,7.663783 8.331401,10.98296 13.651969,13.37707 1.499599,0.763618 6.192552,2.019575 7.550333,2.379565 2.314844,0.417449 5.361302,0.69598 8.293584,0.752706 3.085001,0.0604 7.33724,-0.357806 9.917527,-1.307595 2.79265,-1.026881 6.021649,-2.486478 5.984554,-2.445746 1.295968,-0.714164 3.273364,-1.879945 3.889343,-2.392661 1.190513,-0.762884 1.907584,-1.058152 2.613018,-1.792672 1.017426,-0.890157 1.633408,-1.402872 2.404289,-2.506113 0.429085,-0.621805 1.11052,-1.573775 1.774498,-2.415202 0.714162,-1.170154 1.124332,-2.403572 1.821768,-3.929341 0.834155,-2.256669 0.70471,-2.148306 0.863243,-4.545323 0.149819,-0.69453 -0.01603,-3.029008 -0.141807,-3.425357 -0.37599,-2.15412 -0.242906,-4.05443 -0.73598,-6.14601 -0.666168,-2.829733 -1.219608,-4.947494 -2.069763,-7.662326 -0.799245,-3.056638 -3.146816,-5.888556 -4.908943,-7.911049 -1.091612,-1.253777 -4.478419,-4.215146 -9.177193,-6.064545 -1.322871,-0.445078 -3.488628,-0.949797 -4.863862,-1.200699 -2.935913,-0.306895 -3.413719,-0.109811 -6.224545,0.096 -0.967248,0.168719 -3.213004,0.627617 -4.038429,0.917793 -2.414476,0.847974 -3.30245,1.38687 -5.770745,2.898821 -1.149063,0.666892 -2.01522,1.177426 -3.189732,2.278484 -0.937426,0.867608 -1.607226,2.342474 -2.366472,3.207182 -1.039975,1.415234 -2.197759,3.303178 -2.974462,5.339481 -0.842161,2.025399 -1.113421,4.876956 -0.985425,6.711811 0,1.398508 0.380354,3.958432 0.531616,4.518411 0.150544,0.560712 0.528718,2.298848 0.610899,2.647926 0.08216,0.348353 0.986149,2.187573 1.110513,2.453751 0.509802,1.085058 1.48577,2.644288 3.13009,4.236238 1.213053,1.325055 3.558443,2.625379 5.314031,3.129364 1.574499,0.863977 4.229697,1.010881 5.698742,1.013788 0.722886,-0.04364 2.569384,-0.157084 3.532992,-0.388352 1.954123,-0.469075 2.314837,-0.481439 4.328599,-1.356325 1.807225,-0.837796 3.033372,-1.139599 4.292239,-2.069755 0,0 1.727951,-1.354144 2.513384,-2.344658 0.414533,-0.522894 1.125057,-3.014462 0.998517,-4.557691 -0.05887,-2.112663 0.248722,-3.31118 -0.182538,-5.04931 -0.431259,-1.738129 -1.167239,-3.752616 -1.965033,-4.994041 -0.807983,-1.257417 -2.545387,-2.48283 -4.522783,-3.458074 -1.106872,-0.546895 -3.730077,-1.053787 -4.842771,-1.185424 -2.11412,-0.250901 -3.88207,0.708342 -4.955491,1.805768 -0.93088,1.063966 -2.770832,3.274087 -2.037762,5.55911 0.663253,2.067573 1.463964,4.270423 4.564959,4.106792 2.127937,0.442896 4.589685,-0.19999 5.409305,0.17745 1.216693,0.69089 1.684312,2.21666 1.242139,3.280633 -0.308352,2.051573 -2.273385,2.297385 -4.37078,2.453745 -1.876312,0.314174 -6.641991,-0.604346 -7.689231,-1.389054 -0.702527,-0.417439 -1.778128,-1.420315 -2.535933,-2.097386 -0.544711,-0.48726 -1.161416,-1.573774 -1.582495,-2.354119 -0.517081,-0.958518 -0.778162,-1.663951 -0.911247,-2.288663 -0.157818,-0.741794 -0.482896,-2.157752 -0.359989,-3.573709 0.0829,-0.954887 0.338897,-1.361423 0.59344,-2.757739 0.506894,-1.583229 1.136693,-2.788284 2.149755,-4.161336 1.319957,-1.339598 2.996279,-2.934467 4.632593,-3.675535 1.442864,-0.762161 3.970792,-1.042884 6.257998,-0.909065 1.855222,0.17745 4.050066,0.40362 5.500933,0.890156 2.483566,0.88725 3.193363,1.063974 5.23185,2.349756 1.72286,1.066148 3.455899,3.027549 4.423147,4.652228 2.057395,4.210056 3.237729,8.893562 2.379567,15.198105 -0.07054,1.065425 -0.402171,2.106125 -1.066148,3.516267 -0.613073,1.301775 -1.688684,2.885003 -3.30245,4.076973 -0.650166,0.601436 -1.674863,1.34178 -2.509018,1.775221 -1.183964,0.718522 -1.98031,1.09233 -3.216636,1.713408 -1.085066,0.5098 -2.349754,1.093053 -3.999164,1.551226 -1.787582,0.706883 -3.159177,0.735979 -5.407115,1.071237 -2.213028,0.554898 -8.267395,0.15854 -11.873841,-1.43196 -2.461747,-1.034877 -5.223845,-2.859555 -7.32342,-5.083486 -1.166514,-1.222507 -2.307572,-3.440626 -2.642838,-3.894432 -1.669767,-3.210089 -1.997027,-6.229642 -2.264664,-6.863807 -0.363621,-0.861792 -0.544711,-2.794098 -0.788341,-4.116246 -0.2749,-1.482138 -0.104721,-7.697953 1.39196,-11.687662 0.843617,-1.588319 1.337415,-3.004278 1.908315,-3.748254 1.02615,-1.459598 1.522137,-2.37157 2.394836,-3.406447 1.315599,-1.59559 2.273392,-2.897372 3.554808,-3.815166 3.265358,-2.6552 5.993284,-4.05588 9.682629,-5.808563 4.584598,-1.866849 5.961289,-1.48068 10.300067,-1.411593 1.951947,0.01676 4.792592,0.630525 6.188916,0.885067 2.593377,0.345445 4.079154,0.970154 5.833284,1.459589 1.875581,0.523627 2.959913,1.359241 4.498786,2.289396 1.266871,0.818154 2.757739,1.938853 3.742438,2.848642 2.519198,1.847217 3.734432,3.788986 5.278385,6.17364 0.279999,0.399991 2.113398,4.30752 2.405757,5.395483 0.135267,0.544712 0.550525,2.109031 0.816695,3.023185 0.342538,1.450142 0.508352,2.734474 0.890164,4.370788 0.341805,1.685769 0.923608,4.868953 1.175968,7.844134 0.423988,2.551925 -0.255266,7.761233 -0.655988,9.360463 -0.892338,2.981728 -2.453018,6.620893 -5.535112,10.125523 -1.309053,1.55196 -2.701013,2.754832 -4.308964,4.060247 -1.229788,1.026154 -2.285032,1.623227 -4.18461,2.757746 -2.580289,1.53959 -4.543873,2.522838 -8.160489,3.936614 -1.472684,0.472718 -3.327906,1.094511 -5.32785,1.508319 -3.874064,0.357815 -7.855044,0.701078 -12.200377,0.18473 C 34.73845,90.935326 30.385119,89.710628 27.81356,88.920837 26.394686,88.388488 23.645677,87.235795 22.492983,86.615441 21.743191,86.23436 19.229075,84.515139 18.80218,84.101331 17.079315,83.03519 13.223424,79.40911 10.734046,76.028844 10.188603,74.984511 8.2272089,71.850782 7.8017648,70.477731 6.6708941,68.155614 5.8825524,65.346964 5.4192918,64.146998 4.9305817,61.346353 4.105148,59.542767 3.7829773,56.731218 c 0.03704,-0.661804 -0.1330859,-2.218852 -0.2829055,-3.080644 0.2189075,-1.924309 -0.073438,-3.738075 0.30836,-5.83256 0.3352584,-1.767952 0.779612,-2.506105 0.8850599,-4.103877 0.1032721,-0.683618 0.9832484,-2.739566 1.2174256,-3.654445 0.7097896,-1.50687 0.886515,-2.748283 1.8130375,-4.431871 1.3352354,-2.623929 2.7308262,-5.642749 4.8754922,-8.279765 0.61235,-0.817427 2.349021,-2.77883 2.941003,-3.458808 1.39924,-1.398506 2.2203,-1.619589 3.807169,-3.023184 0.165088,-0.104003 1.213051,-1.298876 2.310479,-1.709767 1.818853,-1.405055 3.390446,-1.920678 5.121303,-3.198461 3.468997,-1.727951 4.733686,-2.311205 8.177226,-3.743888 1.989756,-0.709799 4.764955,-1.102517 5.764196,-1.490143 1.901038,-0.117812 3.830436,-0.7243428 5.830379,-0.603619 2.245024,-0.0211 4.507507,0.138908 6.763441,0.343996 1.526503,0.09381 3.511169,0.167994 6.203452,0.751973 z"
   id="path22"
   style="fill:#f2f2f2;stroke-width:0.72725183"
   inkscape:connector-curvature="0" />
<rect
   style="fill:none"
   id="rect169"
   width="101.80392"
   height="100.94118"
   x="-0.86274511"
   y="-0.078432158" /></svg>